<?xml version="1.0" encoding="utf-8"?>
<svg version="1.1" xmlns:xlink="http://www.w3.org/1999/xlink" width="44px" height="44px" xmlns="http://www.w3.org/2000/svg">
  <g transform="matrix(1 0 0 1 -85 -1067 )">
    <path d="M 107 1067  C 119.32 1067  129 1076.68  129 1089  C 129 1101.32  119.32 1111  107 1111  C 94.68 1111  85 1101.32  85 1089  C 85 1076.68  94.68 1067  107 1067  Z " fill-rule="nonzero" fill="#ffffff" stroke="none" />
    <path d="M 107 1067.5  C 119.04 1067.5  128.5 1076.96  128.5 1089  C 128.5 1101.04  119.04 1110.5  107 1110.5  C 94.96 1110.5  85.5 1101.04  85.5 1089  C 85.5 1076.96  94.96 1067.5  107 1067.5  Z " stroke-width="1" stroke="#797979" fill="none" />
  </g>
</svg>