<?xml version="1.0" encoding="utf-8"?>
<svg version="1.1" xmlns:xlink="http://www.w3.org/1999/xlink" width="44px" height="44px" xmlns="http://www.w3.org/2000/svg">
  <g transform="matrix(1 0 0 1 -85 -1013 )">
    <path d="M 107 1013  C 119.32 1013  129 1022.68  129 1035  C 129 1047.32  119.32 1057  107 1057  C 94.68 1057  85 1047.32  85 1035  C 85 1022.68  94.68 1013  107 1013  Z " fill-rule="nonzero" fill="#ffffff" stroke="none" />
    <path d="M 107 1013.5  C 119.04 1013.5  128.5 1022.96  128.5 1035  C 128.5 1047.04  119.04 1056.5  107 1056.5  C 94.96 1056.5  85.5 1047.04  85.5 1035  C 85.5 1022.96  94.96 1013.5  107 1013.5  Z " stroke-width="1" stroke="#797979" fill="none" />
  </g>
</svg>