<?xml version="1.0" encoding="utf-8"?>
<svg version="1.1" xmlns:xlink="http://www.w3.org/1999/xlink" width="8px" height="7px" xmlns="http://www.w3.org/2000/svg">
  <g transform="matrix(1 0 0 1 -121 -3097 )">
    <path d="M 3.73094170403587 5.25  L 3.98206278026906 5.25  L 4.50224215246637 4.67329545454545  L 3.82062780269058 3.91761363636364  L 3.30044843049327 4.49431818181818  L 3.30044843049327 4.77272727272727  L 3.73094170403587 4.77272727272727  L 3.73094170403587 5.25  Z M 5.95067264573991 1.83451704545455  C 6.00149476831091 1.77817234848485  6.00298953662182 1.72348484848485  5.95515695067265 1.67045454545455  C 5.90732436472347 1.61742424242424  5.85799701046338 1.61908143939394  5.80717488789238 1.67542613636364  L 4.23766816143498 3.41548295454545  C 4.18684603886398 3.47182765151515  4.18535127055306 3.52651515151515  4.23318385650224 3.57954545454545  C 4.28101644245142 3.63257575757576  4.33034379671151 3.63091856060606  4.38116591928251 3.57457386363636  L 5.95067264573991 1.83451704545455  Z M 6.22421524663677 4.47940340909091  C 6.28400597907324 4.50591856060606  6.31390134529148 4.55397727272727  6.31390134529148 4.62357954545455  L 6.31390134529148 5.56818181818182  C 6.31390134529148 5.9625946969697  6.18759342301943 6.29983428030303  5.93497757847534 6.57990056818182  C 5.68236173393124 6.85996685606061  5.37817638266069 7  5.02242152466368 7  L 1.2914798206278 7  C 0.935724962630792 7  0.631539611360239 6.85996685606061  0.378923766816143 6.57990056818182  C 0.126307922272048 6.29983428030303  0 5.9625946969697  0 5.56818181818182  L 0 1.43181818181818  C 0 1.0374053030303  0.126307922272048 0.700165719696969  0.378923766816143 0.420099431818182  C 0.631539611360239 0.140033143939393  0.935724962630792 0  1.2914798206278 0  L 5.02242152466368 0  C 5.21076233183857 0  5.38565022421525 0.0414299242424239  5.54708520179372 0.124289772727272  C 5.59192825112108 0.14749053030303  5.61883408071749 0.18560606060606  5.62780269058296 0.238636363636363  C 5.63677130044843 0.29498106060606  5.62331838565022 0.343039772727272  5.58744394618834 0.3828125  L 5.3677130044843 0.626420454545454  C 5.32585949177877 0.672821969696969  5.2780269058296 0.686079545454546  5.22421524663677 0.666193181818182  C 5.15545590433483 0.646306818181818  5.0881913303438 0.636363636363637  5.02242152466368 0.636363636363637  L 1.2914798206278 0.636363636363637  C 1.09417040358744 0.636363636363637  0.92526158445441 0.714251893939393  0.7847533632287 0.870028409090909  C 0.64424514200299 1.02580492424242  0.573991031390135 1.21306818181818  0.573991031390135 1.43181818181818  L 0.573991031390135 5.56818181818182  C 0.573991031390135 5.78693181818182  0.64424514200299 5.97419507575757  0.7847533632287 6.12997159090909  C 0.92526158445441 6.28574810606061  1.09417040358744 6.36363636363636  1.2914798206278 6.36363636363636  L 5.02242152466368 6.36363636363636  C 5.21973094170404 6.36363636363636  5.38863976083707 6.28574810606061  5.52914798206278 6.12997159090909  C 5.66965620328849 5.97419507575757  5.73991031390135 5.78693181818182  5.73991031390135 5.56818181818182  L 5.73991031390135 4.94176136363636  C 5.73991031390135 4.89867424242424  5.75336322869955 4.86221590909091  5.78026905829596 4.83238636363636  L 6.06726457399103 4.51420454545455  C 6.11210762331839 4.46448863636364  6.1644245142003 4.45288825757576  6.22421524663677 4.47940340909091  Z M 2.86995515695067 4.29545454545455  L 5.88340807174888 0.954545454545454  L 7.17488789237668 2.38636363636364  L 4.16143497757847 5.72727272727273  L 2.86995515695067 5.72727272727273  L 2.86995515695067 4.29545454545455  Z M 8 1.27272727272727  C 8 1.40530303030303  7.95814648729447 1.51799242424242  7.87443946188341 1.61079545454545  L 7.46188340807175 2.06818181818182  L 6.17040358744395 0.636363636363637  L 6.58295964125561 0.178977272727272  C 6.66666666666667 0.0861742424242418  6.76831091180867 0.0397727272727276  6.88789237668161 0.0397727272727276  C 7.00747384155456 0.0397727272727276  7.10911808669656 0.0861742424242418  7.19282511210762 0.178977272727272  L 7.87443946188341 0.934659090909091  C 7.95814648729447 1.02746212121212  8 1.14015151515151  8 1.27272727272727  Z " fill-rule="nonzero" fill="#aaaaaa" stroke="none" transform="matrix(1 0 0 1 121 3097 )" />
  </g>
</svg>