<?xml version="1.0" encoding="utf-8"?>
<svg version="1.1" xmlns:xlink="http://www.w3.org/1999/xlink" width="32px" height="32px" xmlns="http://www.w3.org/2000/svg">
  <g transform="matrix(1 0 0 1 -105 -628 )">
    <path d="M 121 628  C 129.96 628  137 635.04  137 644  C 137 652.96  129.96 660  121 660  C 112.04 660  105 652.96  105 644  C 105 635.04  112.04 628  121 628  Z " fill-rule="nonzero" fill="#ffffff" stroke="none" />
    <path d="M 121 628.5  C 129.68 628.5  136.5 635.32  136.5 644  C 136.5 652.68  129.68 659.5  121 659.5  C 112.32 659.5  105.5 652.68  105.5 644  C 105.5 635.32  112.32 628.5  121 628.5  Z " stroke-width="1" stroke="#797979" fill="none" />
  </g>
</svg>