<?xml version="1.0" encoding="utf-8"?>
<svg version="1.1" xmlns:xlink="http://www.w3.org/1999/xlink" width="48px" height="48px" xmlns="http://www.w3.org/2000/svg">
  <g transform="matrix(1 0 0 1 -485 -235 )">
    <path d="M 509 235  C 522.44 235  533 245.56  533 259  C 533 272.44  522.44 283  509 283  C 495.56 283  485 272.44  485 259  C 485 245.56  495.56 235  509 235  Z " fill-rule="nonzero" fill="#ffffff" stroke="none" />
    <path d="M 509 235.5  C 522.16 235.5  532.5 245.84  532.5 259  C 532.5 272.16  522.16 282.5  509 282.5  C 495.84 282.5  485.5 272.16  485.5 259  C 485.5 245.84  495.84 235.5  509 235.5  Z " stroke-width="1" stroke="#797979" fill="none" />
  </g>
</svg>