<?xml version="1.0" encoding="utf-8"?>
<svg version="1.1" xmlns:xlink="http://www.w3.org/1999/xlink" width="32px" height="32px" xmlns="http://www.w3.org/2000/svg">
  <g transform="matrix(1 0 0 1 -2704 -3629 )">
    <path d="M 2720 3629  C 2728.96 3629  2736 3636.04  2736 3645  C 2736 3653.96  2728.96 3661  2720 3661  C 2711.04 3661  2704 3653.96  2704 3645  C 2704 3636.04  2711.04 3629  2720 3629  Z " fill-rule="nonzero" fill="#ffffff" stroke="none" />
    <path d="M 2720 3629.5  C 2728.68 3629.5  2735.5 3636.32  2735.5 3645  C 2735.5 3653.68  2728.68 3660.5  2720 3660.5  C 2711.32 3660.5  2704.5 3653.68  2704.5 3645  C 2704.5 3636.32  2711.32 3629.5  2720 3629.5  Z " stroke-width="1" stroke="#797979" fill="none" />
  </g>
</svg>