<?xml version="1.0" encoding="utf-8"?>
<svg version="1.1" xmlns:xlink="http://www.w3.org/1999/xlink" width="89px" height="89px" xmlns="http://www.w3.org/2000/svg">
  <g transform="matrix(1 0 0 1 -1650 -4395 )">
    <path d="M 1694.5 4395  C 1719.42 4395  1739 4414.58  1739 4439.5  C 1739 4464.42  1719.42 4484  1694.5 4484  C 1669.58 4484  1650 4464.42  1650 4439.5  C 1650 4414.58  1669.58 4395  1694.5 4395  Z " fill-rule="nonzero" fill="#ffffff" stroke="none" />
    <path d="M 1694.5 4395.5  C 1719.14 4395.5  1738.5 4414.86  1738.5 4439.5  C 1738.5 4464.14  1719.14 4483.5  1694.5 4483.5  C 1669.86 4483.5  1650.5 4464.14  1650.5 4439.5  C 1650.5 4414.86  1669.86 4395.5  1694.5 4395.5  Z " stroke-width="1" stroke="#797979" fill="none" />
  </g>
</svg>