<?xml version="1.0" encoding="utf-8"?>
<svg version="1.1" xmlns:xlink="http://www.w3.org/1999/xlink" width="33px" height="33px" xmlns="http://www.w3.org/2000/svg">
  <g transform="matrix(1 0 0 1 -2709 -4282 )">
    <path d="M 2725.5 4282  C 2734.74 4282  2742 4289.26  2742 4298.5  C 2742 4307.74  2734.74 4315  2725.5 4315  C 2716.26 4315  2709 4307.74  2709 4298.5  C 2709 4289.26  2716.26 4282  2725.5 4282  Z " fill-rule="nonzero" fill="#ffffff" stroke="none" />
    <path d="M 2725.5 4282.5  C 2734.46 4282.5  2741.5 4289.54  2741.5 4298.5  C 2741.5 4307.46  2734.46 4314.5  2725.5 4314.5  C 2716.54 4314.5  2709.5 4307.46  2709.5 4298.5  C 2709.5 4289.54  2716.54 4282.5  2725.5 4282.5  Z " stroke-width="1" stroke="#797979" fill="none" />
  </g>
</svg>