<?xml version="1.0" encoding="utf-8"?>
<svg version="1.1" xmlns:xlink="http://www.w3.org/1999/xlink" width="35px" height="35px" xmlns="http://www.w3.org/2000/svg">
  <g transform="matrix(1 0 0 1 -990 -1763 )">
    <path d="M 1007.5 1763  C 1017.3 1763  1025 1770.7  1025 1780.5  C 1025 1790.3  1017.3 1798  1007.5 1798  C 997.7 1798  990 1790.3  990 1780.5  C 990 1770.7  997.7 1763  1007.5 1763  Z " fill-rule="nonzero" fill="#ffffff" stroke="none" />
    <path d="M 1007.5 1763.5  C 1017.02 1763.5  1024.5 1770.98  1024.5 1780.5  C 1024.5 1790.02  1017.02 1797.5  1007.5 1797.5  C 997.98 1797.5  990.5 1790.02  990.5 1780.5  C 990.5 1770.98  997.98 1763.5  1007.5 1763.5  Z " stroke-width="1" stroke="#797979" fill="none" />
  </g>
</svg>