<?xml version="1.0" encoding="utf-8"?>
<svg version="1.1" xmlns:xlink="http://www.w3.org/1999/xlink" width="19px" height="19px" xmlns="http://www.w3.org/2000/svg">
  <g transform="matrix(1 0 0 1 -182 -1782 )">
    <path d="M 191.5 1782  C 196.82 1782  201 1786.18  201 1791.5  C 201 1796.82  196.82 1801  191.5 1801  C 186.18 1801  182 1796.82  182 1791.5  C 182 1786.18  186.18 1782  191.5 1782  Z " fill-rule="nonzero" fill="#ffffff" stroke="none" />
    <path d="M 191.5 1782.5  C 196.54 1782.5  200.5 1786.46  200.5 1791.5  C 200.5 1796.54  196.54 1800.5  191.5 1800.5  C 186.46 1800.5  182.5 1796.54  182.5 1791.5  C 182.5 1786.46  186.46 1782.5  191.5 1782.5  Z " stroke-width="1" stroke="#797979" fill="none" />
  </g>
</svg>