<?xml version="1.0" encoding="utf-8"?>
<svg version="1.1" xmlns:xlink="http://www.w3.org/1999/xlink" width="13px" height="13px" xmlns="http://www.w3.org/2000/svg">
  <g transform="matrix(1 0 0 1 -10 -156 )">
    <path d="M 16.5 156  C 20.14 156  23 158.86  23 162.5  C 23 166.14  20.14 169  16.5 169  C 12.86 169  10 166.14  10 162.5  C 10 158.86  12.86 156  16.5 156  Z " fill-rule="nonzero" fill="#aaaaaa" stroke="none" />
    <path d="M 16.5 156.5  C 19.86 156.5  22.5 159.14  22.5 162.5  C 22.5 165.86  19.86 168.5  16.5 168.5  C 13.14 168.5  10.5 165.86  10.5 162.5  C 10.5 159.14  13.14 156.5  16.5 156.5  Z " stroke-width="1" stroke="#797979" fill="none" />
  </g>
</svg>