<?xml version="1.0" encoding="utf-8"?>
<svg version="1.1" xmlns:xlink="http://www.w3.org/1999/xlink" width="13px" height="13px" xmlns="http://www.w3.org/2000/svg">
  <g transform="matrix(1 0 0 1 -10 -110 )">
    <path d="M 16.5 110  C 20.14 110  23 112.86  23 116.5  C 23 120.14  20.14 123  16.5 123  C 12.86 123  10 120.14  10 116.5  C 10 112.86  12.86 110  16.5 110  Z " fill-rule="nonzero" fill="#ffffff" stroke="none" />
    <path d="M 16.5 110.5  C 19.86 110.5  22.5 113.14  22.5 116.5  C 22.5 119.86  19.86 122.5  16.5 122.5  C 13.14 122.5  10.5 119.86  10.5 116.5  C 10.5 113.14  13.14 110.5  16.5 110.5  Z " stroke-width="1" stroke="#797979" fill="none" />
  </g>
</svg>