<?xml version="1.0" encoding="utf-8"?>
<svg version="1.1" xmlns:xlink="http://www.w3.org/1999/xlink" width="44px" height="44px" xmlns="http://www.w3.org/2000/svg">
  <g transform="matrix(1 0 0 1 -85 -2094 )">
    <path d="M 107 2094  C 119.32 2094  129 2103.68  129 2116  C 129 2128.32  119.32 2138  107 2138  C 94.68 2138  85 2128.32  85 2116  C 85 2103.68  94.68 2094  107 2094  Z " fill-rule="nonzero" fill="#ffffff" stroke="none" />
    <path d="M 107 2094.5  C 119.04 2094.5  128.5 2103.96  128.5 2116  C 128.5 2128.04  119.04 2137.5  107 2137.5  C 94.96 2137.5  85.5 2128.04  85.5 2116  C 85.5 2103.96  94.96 2094.5  107 2094.5  Z " stroke-width="1" stroke="#797979" fill="none" />
  </g>
</svg>