<?xml version="1.0" encoding="utf-8"?>
<svg version="1.1" xmlns:xlink="http://www.w3.org/1999/xlink" width="44px" height="44px" xmlns="http://www.w3.org/2000/svg">
  <g transform="matrix(1 0 0 1 -70 -662 )">
    <path d="M 92 662  C 104.32 662  114 671.68  114 684  C 114 696.32  104.32 706  92 706  C 79.68 706  70 696.32  70 684  C 70 671.68  79.68 662  92 662  Z " fill-rule="nonzero" fill="#ffffff" stroke="none" />
    <path d="M 92 662.5  C 104.04 662.5  113.5 671.96  113.5 684  C 113.5 696.04  104.04 705.5  92 705.5  C 79.96 705.5  70.5 696.04  70.5 684  C 70.5 671.96  79.96 662.5  92 662.5  Z " stroke-width="1" stroke="#797979" fill="none" />
  </g>
</svg>