<?xml version="1.0" encoding="utf-8"?>
<svg version="1.1" xmlns:xlink="http://www.w3.org/1999/xlink" width="32px" height="32px" xmlns="http://www.w3.org/2000/svg">
  <g transform="matrix(1 0 0 1 -95 -618 )">
    <path d="M 111 618  C 119.96 618  127 625.04  127 634  C 127 642.96  119.96 650  111 650  C 102.04 650  95 642.96  95 634  C 95 625.04  102.04 618  111 618  Z " fill-rule="nonzero" fill="#ffffff" stroke="none" />
    <path d="M 111 618.5  C 119.68 618.5  126.5 625.32  126.5 634  C 126.5 642.68  119.68 649.5  111 649.5  C 102.32 649.5  95.5 642.68  95.5 634  C 95.5 625.32  102.32 618.5  111 618.5  Z " stroke-width="1" stroke="#797979" fill="none" />
  </g>
</svg>