<?xml version="1.0" encoding="utf-8"?>
<svg version="1.1" xmlns:xlink="http://www.w3.org/1999/xlink" width="50px" height="50px" xmlns="http://www.w3.org/2000/svg">
  <g transform="matrix(1 0 0 1 -23 -352 )">
    <path d="M 48 352  C 62 352  73 363  73 377  C 73 391  62 402  48 402  C 34 402  23 391  23 377  C 23 363  34 352  48 352  Z " fill-rule="nonzero" fill="#ffffff" stroke="none" />
    <path d="M 48 352.5  C 61.72 352.5  72.5 363.28  72.5 377  C 72.5 390.72  61.72 401.5  48 401.5  C 34.28 401.5  23.5 390.72  23.5 377  C 23.5 363.28  34.28 352.5  48 352.5  Z " stroke-width="1" stroke="#797979" fill="none" />
  </g>
</svg>