<?xml version="1.0" encoding="utf-8"?>
<svg version="1.1" xmlns:xlink="http://www.w3.org/1999/xlink" width="48px" height="14px" xmlns="http://www.w3.org/2000/svg">
  <defs>
    <mask fill="white" id="clip35">
      <path d="M 0 14  L 0 0  L 28.4825556956705 0  L 30 0  L 36 0  L 48 0  L 48 14  L 0 14  Z " fill-rule="evenodd" />
    </mask>
  </defs>
  <g transform="matrix(1 0 0 1 -96 -1925 )">
    <path d="M 0 14  L 0 0  L 28.4825556956705 0  L 30 0  L 36 0  L 48 0  L 48 14  L 0 14  Z " fill-rule="nonzero" fill="#ffffff" stroke="none" fill-opacity="0" transform="matrix(1 0 0 1 96 1925 )" />
    <path d="M 0 14  L 0 0  L 28.4825556956705 0  L 30 0  L 36 0  L 48 0  L 48 14  L 0 14  Z " stroke-width="2" stroke="#aaaaaa" fill="none" transform="matrix(1 0 0 1 96 1925 )" mask="url(#clip35)" />
  </g>
</svg>