<?xml version="1.0" encoding="utf-8"?>
<svg version="1.1" xmlns:xlink="http://www.w3.org/1999/xlink" width="28px" height="28px" xmlns="http://www.w3.org/2000/svg">
  <g transform="matrix(1 0 0 1 -104 -3741 )">
    <path d="M 118 3741  C 125.84 3741  132 3747.16  132 3755  C 132 3762.84  125.84 3769  118 3769  C 110.16 3769  104 3762.84  104 3755  C 104 3747.16  110.16 3741  118 3741  Z " fill-rule="nonzero" fill="#ffffff" stroke="none" />
    <path d="M 118 3741.5  C 125.56 3741.5  131.5 3747.44  131.5 3755  C 131.5 3762.56  125.56 3768.5  118 3768.5  C 110.44 3768.5  104.5 3762.56  104.5 3755  C 104.5 3747.44  110.44 3741.5  118 3741.5  Z " stroke-width="1" stroke="#797979" fill="none" />
  </g>
</svg>