<?xml version="1.0" encoding="utf-8"?>
<svg version="1.1" xmlns:xlink="http://www.w3.org/1999/xlink" width="30px" height="30px" xmlns="http://www.w3.org/2000/svg">
  <g transform="matrix(1 0 0 1 -20 -81 )">
    <path d="M 35 81  C 43.4 81  50 87.6  50 96  C 50 104.4  43.4 111  35 111  C 26.6 111  20 104.4  20 96  C 20 87.6  26.6 81  35 81  Z " fill-rule="nonzero" fill="#f2f2f2" stroke="none" />
    <path d="M 35 81.5  C 43.12 81.5  49.5 87.88  49.5 96  C 49.5 104.12  43.12 110.5  35 110.5  C 26.88 110.5  20.5 104.12  20.5 96  C 20.5 87.88  26.88 81.5  35 81.5  Z " stroke-width="1" stroke="#797979" fill="none" />
  </g>
</svg>