<?xml version="1.0" encoding="utf-8"?>
<svg version="1.1" xmlns:xlink="http://www.w3.org/1999/xlink" width="45px" height="45px" xmlns="http://www.w3.org/2000/svg">
  <g transform="matrix(1 0 0 1 -103 -1783 )">
    <path d="M 125.5 1783  C 138.1 1783  148 1792.9  148 1805.5  C 148 1818.1  138.1 1828  125.5 1828  C 112.9 1828  103 1818.1  103 1805.5  C 103 1792.9  112.9 1783  125.5 1783  Z " fill-rule="nonzero" fill="#ffffff" stroke="none" />
    <path d="M 125.5 1783.5  C 137.82 1783.5  147.5 1793.18  147.5 1805.5  C 147.5 1817.82  137.82 1827.5  125.5 1827.5  C 113.18 1827.5  103.5 1817.82  103.5 1805.5  C 103.5 1793.18  113.18 1783.5  125.5 1783.5  Z " stroke-width="1" stroke="#797979" fill="none" />
  </g>
</svg>