<?xml version="1.0" encoding="utf-8"?>
<svg version="1.1" xmlns:xlink="http://www.w3.org/1999/xlink" width="45px" height="45px" xmlns="http://www.w3.org/2000/svg">
  <g transform="matrix(1 0 0 1 -103 -1797 )">
    <path d="M 125.5 1797  C 138.1 1797  148 1806.9  148 1819.5  C 148 1832.1  138.1 1842  125.5 1842  C 112.9 1842  103 1832.1  103 1819.5  C 103 1806.9  112.9 1797  125.5 1797  Z " fill-rule="nonzero" fill="#ffffff" stroke="none" />
    <path d="M 125.5 1797.5  C 137.82 1797.5  147.5 1807.18  147.5 1819.5  C 147.5 1831.82  137.82 1841.5  125.5 1841.5  C 113.18 1841.5  103.5 1831.82  103.5 1819.5  C 103.5 1807.18  113.18 1797.5  125.5 1797.5  Z " stroke-width="1" stroke="#797979" fill="none" />
  </g>
</svg>