<?xml version="1.0" encoding="utf-8"?>
<svg version="1.1" xmlns:xlink="http://www.w3.org/1999/xlink" width="15px" height="15px" xmlns="http://www.w3.org/2000/svg">
  <g transform="matrix(1 0 0 1 -128 -4443 )">
    <path d="M 11.62109375 6.25  C 11.62109375 6.41927083333337  11.5592447916667 6.56575520833337  11.435546875 6.689453125  L 7.314453125 10.810546875  C 7.19075520833334 10.9342447916666  7.04427083333334 10.99609375  6.875 10.99609375  C 6.70572916666666 10.99609375  6.55924479166666 10.9342447916666  6.435546875 10.810546875  L 3.564453125 7.939453125  C 3.44075520833334 7.81575520833337  3.37890625 7.66927083333337  3.37890625 7.5  C 3.37890625 7.33072916666663  3.44075520833334 7.18424479166663  3.564453125 7.060546875  L 4.560546875 6.064453125  C 4.68424479166666 5.94075520833337  4.83072916666666 5.87890625  5 5.87890625  C 5.16927083333334 5.87890625  5.31575520833334 5.94075520833337  5.439453125 6.064453125  L 6.875 7.5  L 9.560546875 4.814453125  C 9.68424479166666 4.69075520833337  9.83072916666666 4.62890625  10 4.62890625  C 10.1692708333333 4.62890625  10.3157552083333 4.69075520833337  10.439453125 4.814453125  L 11.435546875 5.810546875  C 11.5592447916667 5.93424479166663  11.62109375 6.08072916666663  11.62109375 6.25  Z M 12.099609375 10.166015625  C 12.5748697916667 9.35221354166663  12.8125 8.46354166666663  12.8125 7.5  C 12.8125 6.53645833333337  12.5748697916667 5.64778645833337  12.099609375 4.833984375  C 11.6243489583333 4.02018229166663  10.9798177083333 3.37565104166663  10.166015625 2.900390625  C 9.35221354166666 2.42513020833337  8.46354166666666 2.1875  7.5 2.1875  C 6.53645833333334 2.1875  5.64778645833334 2.42513020833337  4.833984375 2.900390625  C 4.02018229166666 3.37565104166663  3.37565104166666 4.02018229166663  2.900390625 4.833984375  C 2.42513020833334 5.64778645833337  2.1875 6.53645833333337  2.1875 7.5  C 2.1875 8.46354166666663  2.42513020833334 9.35221354166663  2.900390625 10.166015625  C 3.37565104166666 10.9798177083334  4.02018229166666 11.6243489583334  4.833984375 12.099609375  C 5.64778645833334 12.5748697916666  6.53645833333334 12.8125  7.5 12.8125  C 8.46354166666666 12.8125  9.35221354166666 12.5748697916666  10.166015625 12.099609375  C 10.9798177083333 11.6243489583334  11.6243489583333 10.9798177083334  12.099609375 10.166015625  Z M 13.994140625 3.7353515625  C 14.6647135416667 4.88444010416663  15 6.13932291666663  15 7.5  C 15 8.86067708333337  14.6647135416667 10.1155598958334  13.994140625 11.2646484375  C 13.3235677083333 12.4137369791666  12.4137369791667 13.3235677083334  11.2646484375 13.994140625  C 10.1155598958333 14.6647135416666  8.86067708333334 15  7.5 15  C 6.13932291666666 15  4.88444010416666 14.6647135416666  3.7353515625 13.994140625  C 2.58626302083334 13.3235677083334  1.67643229166666 12.4137369791666  1.005859375 11.2646484375  C 0.335286458333343 10.1155598958334  0 8.86067708333337  0 7.5  C 0 6.13932291666663  0.335286458333343 4.88444010416663  1.005859375 3.7353515625  C 1.67643229166666 2.58626302083337  2.58626302083334 1.67643229166663  3.7353515625 1.005859375  C 4.88444010416666 0.335286458333371  6.13932291666666 0  7.5 0  C 8.86067708333334 0  10.1155598958333 0.335286458333371  11.2646484375 1.005859375  C 12.4137369791667 1.67643229166663  13.3235677083333 2.58626302083337  13.994140625 3.7353515625  Z " fill-rule="nonzero" fill="#999999" stroke="none" transform="matrix(1 0 0 1 128 4443 )" />
  </g>
</svg>