<?xml version="1.0" encoding="utf-8"?>
<svg version="1.1" xmlns:xlink="http://www.w3.org/1999/xlink" width="34px" height="34px" xmlns="http://www.w3.org/2000/svg">
  <g transform="matrix(1 0 0 1 -69 -1021 )">
    <path d="M 86 1021  C 95.52 1021  103 1028.48  103 1038  C 103 1047.52  95.52 1055  86 1055  C 76.48 1055  69 1047.52  69 1038  C 69 1028.48  76.48 1021  86 1021  Z " fill-rule="nonzero" fill="#ffffff" stroke="none" />
    <path d="M 86 1021.5  C 95.24 1021.5  102.5 1028.76  102.5 1038  C 102.5 1047.24  95.24 1054.5  86 1054.5  C 76.76 1054.5  69.5 1047.24  69.5 1038  C 69.5 1028.76  76.76 1021.5  86 1021.5  Z " stroke-width="1" stroke="#797979" fill="none" />
  </g>
</svg>