<?xml version="1.0" encoding="utf-8"?>
<svg version="1.1" xmlns:xlink="http://www.w3.org/1999/xlink" width="48px" height="48px" xmlns="http://www.w3.org/2000/svg">
  <g transform="matrix(1 0 0 1 -20 -84 )">
    <path d="M 44 84  C 57.44 84  68 94.56  68 108  C 68 121.44  57.44 132  44 132  C 30.56 132  20 121.44  20 108  C 20 94.56  30.56 84  44 84  Z " fill-rule="nonzero" fill="#ffffff" stroke="none" />
    <path d="M 44 84.5  C 57.16 84.5  67.5 94.84  67.5 108  C 67.5 121.16  57.16 131.5  44 131.5  C 30.84 131.5  20.5 121.16  20.5 108  C 20.5 94.84  30.84 84.5  44 84.5  Z " stroke-width="1" stroke="#797979" fill="none" />
  </g>
</svg>